<svg width="360" height="360" viewBox="0 0 360 360" fill="none" xmlns="http://www.w3.org/2000/svg">
<rect x="-1" y="-1" width="38" height="38" fill="#0A0A0A" stroke="#121212" stroke-width="2"/>
<rect x="-1" y="35" width="38" height="38" fill="#0A0A0A" stroke="#121212" stroke-width="2"/>
<rect x="-1" y="71" width="38" height="38" fill="#0A0A0A" stroke="#121212" stroke-width="2"/>
<rect x="-1" y="107" width="38" height="38" fill="#0A0A0A" stroke="#121212" stroke-width="2"/>
<rect x="-1" y="143" width="38" height="38" fill="#0A0A0A" stroke="#121212" stroke-width="2"/>
<rect x="-1" y="179" width="38" height="38" fill="#0A0A0A" stroke="#121212" stroke-width="2"/>
<rect x="-1" y="215" width="38" height="38" fill="#0A0A0A" stroke="#121212" stroke-width="2"/>
<rect x="-1" y="251" width="38" height="38" fill="#0A0A0A" stroke="#121212" stroke-width="2"/>
<rect x="-1" y="287" width="38" height="38" fill="#0A0A0A" stroke="#121212" stroke-width="2"/>
<rect x="-1" y="323" width="38" height="38" fill="#0A0A0A" stroke="#121212" stroke-width="2"/>
<rect x="143" y="-1" width="38" height="38" fill="#0A0A0A" stroke="#121212" stroke-width="2"/>
<rect x="143" y="35" width="38" height="38" fill="#0A0A0A" stroke="#121212" stroke-width="2"/>
<rect x="143" y="71" width="38" height="38" fill="#0A0A0A" stroke="#121212" stroke-width="2"/>
<rect x="143" y="107" width="38" height="38" fill="#0A0A0A" stroke="#121212" stroke-width="2"/>
<rect x="143" y="143" width="38" height="38" fill="#0A0A0A" stroke="#121212" stroke-width="2"/>
<rect x="143" y="179" width="38" height="38" fill="#0A0A0A" stroke="#121212" stroke-width="2"/>
<rect x="143" y="215" width="38" height="38" fill="#0A0A0A" stroke="#121212" stroke-width="2"/>
<rect x="143" y="251" width="38" height="38" fill="#0A0A0A" stroke="#121212" stroke-width="2"/>
<rect x="143" y="287" width="38" height="38" fill="#0A0A0A" stroke="#121212" stroke-width="2"/>
<rect x="143" y="323" width="38" height="38" fill="#0A0A0A" stroke="#121212" stroke-width="2"/>
<rect x="35" y="-1" width="38" height="38" fill="#0A0A0A" stroke="#121212" stroke-width="2"/>
<rect x="35" y="35" width="38" height="38" fill="#0A0A0A" stroke="#121212" stroke-width="2"/>
<rect x="35" y="71" width="38" height="38" fill="#0A0A0A" stroke="#121212" stroke-width="2"/>
<rect x="35" y="107" width="38" height="38" fill="#0A0A0A" stroke="#121212" stroke-width="2"/>
<rect x="35" y="143" width="38" height="38" fill="#0A0A0A" stroke="#121212" stroke-width="2"/>
<rect x="35" y="179" width="38" height="38" fill="#0A0A0A" stroke="#121212" stroke-width="2"/>
<rect x="35" y="215" width="38" height="38" fill="#0A0A0A" stroke="#121212" stroke-width="2"/>
<rect x="35" y="251" width="38" height="38" fill="#0A0A0A" stroke="#121212" stroke-width="2"/>
<rect x="35" y="287" width="38" height="38" fill="#0A0A0A" stroke="#121212" stroke-width="2"/>
<rect x="35" y="323" width="38" height="38" fill="#0A0A0A" stroke="#121212" stroke-width="2"/>
<rect x="179" y="-1" width="38" height="38" fill="#0A0A0A" stroke="#121212" stroke-width="2"/>
<rect x="179" y="35" width="38" height="38" fill="#0A0A0A" stroke="#121212" stroke-width="2"/>
<rect x="179" y="71" width="38" height="38" fill="#0A0A0A" stroke="#121212" stroke-width="2"/>
<rect x="179" y="107" width="38" height="38" fill="#0A0A0A" stroke="#121212" stroke-width="2"/>
<rect x="179" y="143" width="38" height="38" fill="#0A0A0A" stroke="#121212" stroke-width="2"/>
<rect x="179" y="179" width="38" height="38" fill="#0A0A0A" stroke="#121212" stroke-width="2"/>
<rect x="179" y="215" width="38" height="38" fill="#0A0A0A" stroke="#121212" stroke-width="2"/>
<rect x="179" y="251" width="38" height="38" fill="#0A0A0A" stroke="#121212" stroke-width="2"/>
<rect x="179" y="287" width="38" height="38" fill="#0A0A0A" stroke="#121212" stroke-width="2"/>
<rect x="179" y="323" width="38" height="38" fill="#0A0A0A" stroke="#121212" stroke-width="2"/>
<rect x="71" y="-1" width="38" height="38" fill="#0A0A0A" stroke="#121212" stroke-width="2"/>
<rect x="71" y="35" width="38" height="38" fill="#0A0A0A" stroke="#121212" stroke-width="2"/>
<rect x="71" y="71" width="38" height="38" fill="#0A0A0A" stroke="#121212" stroke-width="2"/>
<rect x="71" y="107" width="38" height="38" fill="#0A0A0A" stroke="#121212" stroke-width="2"/>
<rect x="71" y="143" width="38" height="38" fill="#0A0A0A" stroke="#121212" stroke-width="2"/>
<rect x="71" y="179" width="38" height="38" fill="#0A0A0A" stroke="#121212" stroke-width="2"/>
<rect x="71" y="215" width="38" height="38" fill="#0A0A0A" stroke="#121212" stroke-width="2"/>
<rect x="71" y="251" width="38" height="38" fill="#0A0A0A" stroke="#121212" stroke-width="2"/>
<rect x="71" y="287" width="38" height="38" fill="#0A0A0A" stroke="#121212" stroke-width="2"/>
<rect x="71" y="323" width="38" height="38" fill="#0A0A0A" stroke="#121212" stroke-width="2"/>
<rect x="215" y="-1" width="38" height="38" fill="#0A0A0A" stroke="#121212" stroke-width="2"/>
<rect x="215" y="35" width="38" height="38" fill="#0A0A0A" stroke="#121212" stroke-width="2"/>
<rect x="215" y="71" width="38" height="38" fill="#0A0A0A" stroke="#121212" stroke-width="2"/>
<rect x="215" y="107" width="38" height="38" fill="#0A0A0A" stroke="#121212" stroke-width="2"/>
<rect x="215" y="143" width="38" height="38" fill="#0A0A0A" stroke="#121212" stroke-width="2"/>
<rect x="215" y="179" width="38" height="38" fill="#0A0A0A" stroke="#121212" stroke-width="2"/>
<rect x="215" y="215" width="38" height="38" fill="#0A0A0A" stroke="#121212" stroke-width="2"/>
<rect x="215" y="251" width="38" height="38" fill="#0A0A0A" stroke="#121212" stroke-width="2"/>
<rect x="215" y="287" width="38" height="38" fill="#0A0A0A" stroke="#121212" stroke-width="2"/>
<rect x="215" y="323" width="38" height="38" fill="#0A0A0A" stroke="#121212" stroke-width="2"/>
<rect x="287" y="-1" width="38" height="38" fill="#0A0A0A" stroke="#121212" stroke-width="2"/>
<rect x="287" y="35" width="38" height="38" fill="#0A0A0A" stroke="#121212" stroke-width="2"/>
<rect x="287" y="71" width="38" height="38" fill="#0A0A0A" stroke="#121212" stroke-width="2"/>
<rect x="287" y="107" width="38" height="38" fill="#0A0A0A" stroke="#121212" stroke-width="2"/>
<rect x="287" y="143" width="38" height="38" fill="#0A0A0A" stroke="#121212" stroke-width="2"/>
<rect x="287" y="179" width="38" height="38" fill="#0A0A0A" stroke="#121212" stroke-width="2"/>
<rect x="287" y="215" width="38" height="38" fill="#0A0A0A" stroke="#121212" stroke-width="2"/>
<rect x="287" y="251" width="38" height="38" fill="#0A0A0A" stroke="#121212" stroke-width="2"/>
<rect x="287" y="287" width="38" height="38" fill="#0A0A0A" stroke="#121212" stroke-width="2"/>
<rect x="287" y="323" width="38" height="38" fill="#0A0A0A" stroke="#121212" stroke-width="2"/>
<rect x="107" y="-1" width="38" height="38" fill="#0A0A0A" stroke="#121212" stroke-width="2"/>
<rect x="107" y="35" width="38" height="38" fill="#0A0A0A" stroke="#121212" stroke-width="2"/>
<rect x="107" y="71" width="38" height="38" fill="#0A0A0A" stroke="#121212" stroke-width="2"/>
<rect x="107" y="107" width="38" height="38" fill="#0A0A0A" stroke="#121212" stroke-width="2"/>
<rect x="107" y="143" width="38" height="38" fill="#0A0A0A" stroke="#121212" stroke-width="2"/>
<rect x="107" y="179" width="38" height="38" fill="#0A0A0A" stroke="#121212" stroke-width="2"/>
<rect x="107" y="215" width="38" height="38" fill="#0A0A0A" stroke="#121212" stroke-width="2"/>
<rect x="107" y="251" width="38" height="38" fill="#0A0A0A" stroke="#121212" stroke-width="2"/>
<rect x="107" y="287" width="38" height="38" fill="#0A0A0A" stroke="#121212" stroke-width="2"/>
<rect x="107" y="323" width="38" height="38" fill="#0A0A0A" stroke="#121212" stroke-width="2"/>
<rect x="251" y="-1" width="38" height="38" fill="#0A0A0A" stroke="#121212" stroke-width="2"/>
<rect x="251" y="35" width="38" height="38" fill="#0A0A0A" stroke="#121212" stroke-width="2"/>
<rect x="251" y="71" width="38" height="38" fill="#0A0A0A" stroke="#121212" stroke-width="2"/>
<rect x="251" y="107" width="38" height="38" fill="#0A0A0A" stroke="#121212" stroke-width="2"/>
<rect x="251" y="143" width="38" height="38" fill="#0A0A0A" stroke="#121212" stroke-width="2"/>
<rect x="251" y="179" width="38" height="38" fill="#0A0A0A" stroke="#121212" stroke-width="2"/>
<rect x="251" y="215" width="38" height="38" fill="#0A0A0A" stroke="#121212" stroke-width="2"/>
<rect x="251" y="251" width="38" height="38" fill="#0A0A0A" stroke="#121212" stroke-width="2"/>
<rect x="251" y="287" width="38" height="38" fill="#0A0A0A" stroke="#121212" stroke-width="2"/>
<rect x="251" y="323" width="38" height="38" fill="#0A0A0A" stroke="#121212" stroke-width="2"/>
<rect x="323" y="-1" width="38" height="38" fill="#0A0A0A" stroke="#121212" stroke-width="2"/>
<rect x="323" y="35" width="38" height="38" fill="#0A0A0A" stroke="#121212" stroke-width="2"/>
<rect x="323" y="71" width="38" height="38" fill="#0A0A0A" stroke="#121212" stroke-width="2"/>
<rect x="323" y="107" width="38" height="38" fill="#0A0A0A" stroke="#121212" stroke-width="2"/>
<rect x="323" y="143" width="38" height="38" fill="#0A0A0A" stroke="#121212" stroke-width="2"/>
<rect x="323" y="179" width="38" height="38" fill="#0A0A0A" stroke="#121212" stroke-width="2"/>
<rect x="323" y="215" width="38" height="38" fill="#0A0A0A" stroke="#121212" stroke-width="2"/>
<rect x="323" y="251" width="38" height="38" fill="#0A0A0A" stroke="#121212" stroke-width="2"/>
<rect x="323" y="287" width="38" height="38" fill="#0A0A0A" stroke="#121212" stroke-width="2"/>
<rect x="323" y="323" width="38" height="38" fill="#0A0A0A" stroke="#121212" stroke-width="2"/>
</svg>
