<svg width="162" height="162" viewBox="0 0 162 162" fill="none" xmlns="http://www.w3.org/2000/svg">
<path d="M95.0002 45.5C127 77.5 113 105.5 102 115.5C94.7996 114.7 69.0002 115.167 57.0005 115.5C30.5003 83.5 54.3339 52.5 70.5006 38.5C64.0126 27.2624 73.5 21 79.0006 21C86.6006 21 89.5003 28 90.0002 31.5C76.8002 44.7 74.1668 71.6667 74.5002 83.5H85.5002C85.5002 65.5 91.8335 50.6667 95.0002 45.5Z" fill="#5C5957" stroke="black" stroke-width="3"/>
<path d="M38 130.501V140.501H123.001V130.501C123.001 126.834 120.201 119.001 109.001 117.001C103.073 116.012 94.2155 116 80.5005 116C66.7854 116 57.9283 116.012 52 117.001C40.8 119.001 38 126.834 38 130.501Z" fill="#5C5957"/>
<path d="M81 116H80.984C66.9932 116 57.9977 116 52 117.001C40.8 119.001 38 126.834 38 130.501V140.501H123.001V130.501C123.001 126.834 120.201 119.001 109.001 117.001C103.003 116 94.0078 116 80.017 116H80.001" stroke="black" stroke-width="3"/>
<path d="M96.3389 116.681C98.0018 116.73 99.445 116.796 100.599 116.882L100.5 117.001L96.3389 116.681Z" fill="#474543"/>
<path d="M106.036 61.7578C111.959 71.6584 113.69 80.7891 113.129 88.6445C112.311 100.093 106.614 109.048 101.473 113.941C98.0219 113.637 91.6473 113.544 84.6094 113.561C91.5188 109.24 101.99 99.5316 107 83.501C108.876 76.5 107.605 68.4288 106.036 61.7578Z" fill="#474543"/>
<path d="M83.9994 23.9883C84.772 24.5221 85.4292 25.168 85.9877 25.8711C87.3095 27.5354 88.0593 29.5102 88.3852 31.0098C81.8268 37.8985 77.9404 47.975 75.7123 57.6777C73.4143 67.6851 72.8306 77.513 73.0004 83.543L73.0346 84.7852H72C68.6667 79.1185 64.9985 64.7009 74.9984 49.501L83.9994 33.001V23.9883Z" fill="#474543"/>
<path d="M80.4941 117.5C94.267 117.5 102.965 117.516 108.74 118.479C115.311 119.654 118.668 122.938 120.251 125.958C114.749 122.81 91.1811 122 79.4941 122C61.0438 122 46.9287 124.453 40.7002 126.032C42.2669 122.992 45.6244 119.664 52.248 118.479C58.0233 117.516 66.7211 117.5 80.4941 117.5Z" fill="#84807D"/>
<path d="M73.9999 41.5014C75 39.7692 76 38.5 73 38.4922C72.9459 38.5453 73 38.4976 72.4188 38.8246L71.4823 39.6352C63.5017 46.5463 53.7145 57.589 49.1679 70.7416C46.7558 77.7193 45.8099 85.311 47.4227 93.2455L48.9999 98.5014C49.8332 84.3348 54.8001 54.3015 73.9999 41.5014Z" fill="#85817E"/>
<path d="M77.0771 22.7656C73.4201 25.507 71.0113 29.687 69.8848 32.4609C69.825 31.9738 69.8045 31.5093 69.8174 31.0674C69.8706 29.2385 70.4984 27.6991 71.4512 26.4404C72.9054 24.5195 75.1021 23.2769 77.0771 22.7656Z" fill="#85817E"/>
</svg>
