<svg width="162" height="162" viewBox="0 0 162 162" fill="none" xmlns="http://www.w3.org/2000/svg">
<path d="M70.9997 95C58.1997 106.6 56 115.167 56.5 117.5C73.5 114.5 107 115.5 118.5 117.5C124.1 100.7 125.167 88.3333 125 84C125 72 119 59.6667 116 55C107.2 39.758 88 34.6491 79.5 34L68 23.5C64 23.5 62 31.1667 61.5 35C58.3 38.2 53.1667 43.6667 51 46C51 50.8 46 60.3333 43.5 64.5C38.3 72.1 33.6667 78.6667 32 81V84C34.0364 91.6 45.5152 94.5 51 95L59 85C62.2 85 66.3333 84.3333 68 84C74 81.6 79.5 76 81.5 73.5C83.1 74.7 83.5 78.3333 83.5 80C81.1 86.4 74.1665 92.6667 70.9997 95Z" fill="#5C5957" stroke="black" stroke-width="3"/>
<path d="M92.7803 38.6221C94.1693 39.137 95.5843 39.7227 97.001 40.3867C103.788 43.5679 110.503 48.4789 114.701 55.751L114.719 55.7822L114.738 55.8125C117.661 60.3585 123.5 72.4051 123.5 84.001V84.0303L123.501 84.0586C123.655 88.0698 122.682 99.7648 117.473 115.817C117.121 115.765 116.754 115.714 116.374 115.663C116.214 115.642 116.052 115.622 115.887 115.601C115.669 115.573 115.447 115.545 115.222 115.518C115.031 115.495 114.837 115.473 114.641 115.45C114.39 115.421 114.134 115.392 113.874 115.364C113.715 115.347 113.554 115.329 113.392 115.312C113.051 115.277 112.703 115.243 112.348 115.209C112.232 115.198 112.117 115.187 112 115.176C111.627 115.141 111.247 115.107 110.86 115.073C110.593 115.05 110.322 115.027 110.048 115.005C109.704 114.977 109.355 114.947 109.002 114.92C108.876 114.91 108.75 114.901 108.623 114.892C108.24 114.863 107.852 114.835 107.459 114.808C107.217 114.791 106.973 114.774 106.727 114.758C106.501 114.743 106.274 114.728 106.045 114.714C105.735 114.694 105.423 114.674 105.107 114.655C104.777 114.635 104.443 114.617 104.106 114.598C103.897 114.586 103.686 114.573 103.475 114.562C103.288 114.551 103.1 114.543 102.911 114.533C102.19 114.496 101.458 114.461 100.716 114.428C100.51 114.419 100.302 114.409 100.095 114.4C99.8122 114.388 99.5283 114.377 99.2432 114.366C98.905 114.353 98.5652 114.34 98.2236 114.327C97.9444 114.317 97.6641 114.307 97.3828 114.298C97.0231 114.286 96.6617 114.275 96.2988 114.264C96.0469 114.256 95.7943 114.248 95.541 114.241C95.4847 114.24 95.4284 114.238 95.3721 114.236C97.2756 108.147 103.649 98.501 110 87.501C113.874 80.791 115.222 62.9195 109 55.001C106.028 51.2185 99.3345 43.6464 92.6445 38.5703C92.6899 38.587 92.7348 38.6052 92.7803 38.6221Z" fill="#474543"/>
<path d="M58 79C59.5257 79.4161 62.666 80.7336 64.8301 83.0078C63.0239 83.2652 60.8371 83.5 59 83.5H58.2793L50.3428 93.4199C49.9424 93.3709 49.5177 93.3084 49.0732 93.2354C51.1483 88.7421 55.0951 81.1787 58 79Z" fill="#474543"/>
<path d="M84.5596 76.2295C84.8914 77.6306 85 79.0744 85 80C86.6667 76.6667 89.6 68.2 88 61C86.7687 63.4626 83.879 68.2544 81.7012 71.7754L82.4004 72.2998C83.6555 73.2412 84.2498 74.9216 84.5596 76.2295Z" fill="#474543"/>
<path d="M73.5003 51.5C73.5003 53.1569 70.2094 56 68.0003 56C66.5552 56 65.5001 56 62 56C61.3937 55.6229 62.366 54 62.5003 53.5C63.0001 52 66.7912 47.5 69.0003 47.5C71.2094 47.5 73.5003 49.8431 73.5003 51.5Z" fill="black"/>
<path d="M70.3389 27.668C70.6205 33.1364 67.6892 36.7049 66.4424 38C56.8424 43.5426 55.5986 54 53 58.501L33.668 84.2871C33.6066 84.1226 33.5498 83.9562 33.5 83.7871V81.4785C35.3694 78.8532 39.7995 72.5658 44.7383 65.3477L44.7637 65.3115L44.7861 65.2725C46.0612 63.1473 47.9662 59.6686 49.5576 56.0996C50.3535 54.3146 51.0812 52.484 51.6123 50.7754C52.0626 49.3265 52.3919 47.8942 52.4766 46.6172C54.814 44.1066 59.554 39.0681 62.5605 36.0615L62.9219 35.7012L62.9873 35.1953C63.2255 33.3691 63.8228 30.645 64.8086 28.4219C65.3027 27.3078 65.8569 26.4063 66.4424 25.8047C66.8219 25.4148 67.1746 25.1902 67.5068 25.082L70.3389 27.668Z" fill="#85817E"/>
<path d="M45 130.501V140.501H130.001V130.501C130.001 126.834 127.201 119.001 116.001 117.001C110.073 116.012 101.216 116 87.5005 116C73.7854 116 64.9283 116.012 59 117.001C47.8 119.001 45 126.834 45 130.501Z" fill="#5C5957"/>
<path d="M88 116H87.984C73.9932 116 64.9977 116 59 117.001C47.8 119.001 45 126.834 45 130.501V140.501H130.001V130.501C130.001 126.834 127.201 119.001 116.001 117.001C110.003 116 101.008 116 87.017 116H87.001" stroke="black" stroke-width="3"/>
<path d="M87.5 117.5C101.273 117.5 109.971 117.516 115.746 118.479C122.317 119.654 125.674 122.938 127.257 125.958C121.755 122.81 98.1869 122 86.5 122C68.0497 122 53.9346 124.453 47.7061 126.032C49.2728 122.992 52.6303 119.664 59.2539 118.479C65.0292 117.516 73.727 117.5 87.5 117.5Z" fill="#84807D"/>
</svg>
