<svg width="162" height="162" viewBox="0 0 162 162" fill="none" xmlns="http://www.w3.org/2000/svg">
<path d="M80.0672 140.5H82.5676H119.567C119.9 136.833 119.167 127.6 113.567 120C108.234 116.833 96.8674 108.2 94.0674 99C93.4007 97.3333 92.1674 93.4 92.5674 91H101.567C102.401 90.1667 104.067 87.8 104.067 85C104.067 84.3333 103.567 82.6 101.567 81L94.5674 75.5C94.734 75 95.7674 73.1 98.5674 69.5C99.234 68.3333 100.567 64.8 100.567 60C100.234 53.8333 95.0674 41.5 81.0674 41.5C67.0674 41.5 62.4007 53.8333 62.0674 60C62.0674 64.8 63.4007 68.3333 64.0674 69.5C66.8674 73.1 67.9007 75 68.0674 75.5L61.0674 81C59.0674 82.6 58.5674 84.3333 58.5674 85C58.5674 87.8 60.234 90.1667 61.0674 91H70.0674C70.4674 93.4 69.234 97.3333 68.5674 99C65.7674 108.2 54.4009 116.833 49.0676 120C43.4676 127.6 42.7343 136.833 43.0676 140.5H80.0672Z" fill="#5C5957"/>
<path d="M82.5676 140.5H43.0676C42.7343 136.833 43.4676 127.6 49.0676 120C54.4009 116.833 65.7674 108.2 68.5674 99C69.234 97.3333 70.4674 93.4 70.0674 91H61.0674C60.234 90.1667 58.5674 87.8 58.5674 85C58.5674 84.3333 59.0674 82.6 61.0674 81L68.0674 75.5C67.9007 75 66.8674 73.1 64.0674 69.5C63.4007 68.3333 62.0674 64.8 62.0674 60C62.4007 53.8333 67.0674 41.5 81.0674 41.5C95.0674 41.5 100.234 53.8333 100.567 60C100.567 64.8 99.234 68.3333 98.5674 69.5C95.7674 73.1 94.734 75 94.5674 75.5L101.567 81C103.567 82.6 104.067 84.3333 104.067 85C104.067 87.8 102.401 90.1667 101.567 91H92.5674C92.1674 93.4 93.4007 97.3333 94.0674 99C96.8674 108.2 108.234 116.833 113.567 120C119.167 127.6 119.9 136.833 119.567 140.5H80.0672" stroke="black" stroke-width="3"/>
<path d="M90.5674 89L91.1523 90.3652L91.0879 90.7529C90.8375 92.2552 91.1041 94.0782 91.4551 95.6104C91.8085 97.1534 92.2962 98.5991 92.6533 99.501C94.1778 104.444 97.9224 109.095 101.828 112.845C104.755 115.655 107.859 118.039 110.391 119.751C101.818 117.792 83.8948 110.287 72.0674 93.5L71.6436 92.2285C71.6526 91.7179 71.6247 91.2199 71.5469 90.7529L71.3379 89.5H70.7344L70.5674 89H90.5674Z" fill="#474543"/>
<path d="M92.9863 75.5L92.8105 76.0273L100.641 82.1797C101.473 82.8478 101.961 83.5164 102.238 84.0459C102.378 84.3132 102.464 84.5436 102.513 84.7197C102.564 84.9056 102.567 85 102.567 85C102.567 86.8884 101.597 88.5973 100.889 89.5H91.2969L91.2217 89.9453L89.5674 89C92.4007 87.6667 96.6674 83.1 91.0674 75.5H92.9863Z" fill="#474543"/>
<path d="M93.6836 48.1367C94.0689 48.5375 94.4317 48.9513 94.7715 49.376C97.6345 52.955 98.9066 57.254 99.0664 60.0459C99.0583 64.469 97.8514 67.6739 97.3037 68.6836C95.9243 70.4625 94.9614 71.842 94.3145 72.8574C93.6836 73.8475 93.292 74.5842 93.1445 75.0264L92.9863 75.501H79.5674C87.5292 72.4137 101.159 62.7065 93.6836 48.1367Z" fill="#474543"/>
<path d="M70.0078 99.4258C69.4202 111.329 64.5699 116.749 62.0674 118C48.4674 125.852 45.0674 134.938 45.0674 138.5L44.5273 137.779C44.7067 133.599 45.9649 126.879 50.1084 121.123C52.8675 119.454 56.9872 116.512 60.8066 112.845C64.7123 109.095 68.4559 104.444 69.9805 99.501C69.9901 99.4766 69.998 99.451 70.0078 99.4258Z" fill="#85817E"/>
<path d="M79.6934 43.0449C69.5835 47.6209 65.498 60.0741 64.6299 66.9707C64.1099 65.3937 63.5726 62.9883 63.5674 60.043C63.7284 57.2182 64.8946 52.9167 67.6318 49.3506C70.1397 46.0833 73.9731 43.4144 79.6934 43.0449Z" fill="#85817E"/>
<path d="M69.0674 82.501L61.2275 82.8926C61.4434 82.6597 61.6963 82.4198 61.9941 82.1807L69.5117 76.2734L69.0674 82.501Z" fill="#85817E"/>
</svg>
