<svg width="162" height="162" viewBox="0 0 162 162" fill="none" xmlns="http://www.w3.org/2000/svg">
<path d="M105.5 69.5L111.5 117.5C106.205 117.004 92.7943 116.014 81.25 116C69.7057 116.014 56.2951 117.004 51 117.5L57 69.5C61.4575 68.6745 72.489 67.0314 81.25 67.0004C90.011 67.0314 101.043 68.6745 105.5 69.5Z" fill="#5C5957"/>
<path d="M81 67C89.8 67 101 68.6667 105.5 69.5L111.5 117.5C106.167 117 92.6 116 81 116M81.5 67C72.7 67 61.5 68.6667 57 69.5L51 117.5C56.3333 117 69.9 116 81.5 116" stroke="black" stroke-width="3"/>
<path d="M116 56.5C116 63.3 109.667 67.6667 106.5 69C97 67.6667 73.6 65.8 56 69C52.8333 67.6667 46.5 63.3 46.5 56.5L46 39C48.8333 37.6667 55.5 35 59.5 35L63 49H70.5L72.5 33.5C74.0521 33.3448 77.8304 33.045 81.25 33.0046C84.6696 33.045 88.4478 33.3448 90 33.5L92 49H99.5L103 35C107 35 113.667 37.6667 116.5 39L116 56.5Z" fill="#5C5957"/>
<path d="M80.5 33C84.1 33 88.3333 33.3333 90 33.5L92 49H99.5L103 35C107 35 113.667 37.6667 116.5 39L116 56.5C116 63.3 109.667 67.6667 106.5 69C97 67.6667 73.6 65.8 56 69C52.8333 67.6667 46.5 63.3 46.5 56.5L46 39C48.8333 37.6667 55.5 35 59.5 35L63 49H70.5L72.5 33.5C74.1667 33.3333 78.4 33 82 33" stroke="black" stroke-width="3"/>
<path d="M38 131.001V141.001H123.001V131.001C123.001 127.334 120.201 119.501 109.001 117.501C103.073 116.512 94.2155 116.5 80.5005 116.5C66.7854 116.5 57.9283 116.512 52 117.501C40.8 119.501 38 127.334 38 131.001Z" fill="#5C5957"/>
<path d="M81 116.5H80.984C66.9932 116.5 57.9977 116.5 52 117.501C40.8 119.501 38 127.334 38 131.001V141.001H123.001V131.001C123.001 127.334 120.201 119.501 109.001 117.501C103.003 116.5 94.0078 116.5 80.017 116.5H80.001" stroke="black" stroke-width="3"/>
<path d="M81.25 68.5C89.2429 68.5288 99.2089 69.9248 104.148 70.7812L109.781 115.842C107.206 115.623 103.628 115.356 99.5752 115.117C100.779 99.9465 97.1631 71.9614 74.3848 68.7939C76.7254 68.6202 79.0616 68.5079 81.25 68.5Z" fill="#474543"/>
<path d="M110.062 38.0391C111.92 38.6681 113.675 39.3789 114.972 39.9521L114.501 56.4561L114.5 56.4775V56.499C114.5 59.403 113.153 61.8456 111.344 63.7725C109.674 65.5511 107.687 66.8013 106.278 67.4551C104.265 67.181 101.69 66.8884 98.7168 66.623C107.5 57.8398 110.062 52.5 110.062 38.0391Z" fill="#474543"/>
<path d="M80.4941 118C94.267 118 102.965 118.016 108.74 118.979C115.311 120.154 118.668 123.438 120.251 126.458C114.749 123.31 91.1811 122.5 79.4941 122.5C61.0438 122.5 46.9287 124.953 40.7002 126.532C42.2669 123.492 45.6244 120.164 52.248 118.979C58.0233 118.016 66.7211 118 80.4941 118Z" fill="#84807D"/>
<path d="M104.152 36.5723C105.575 36.7338 107.289 37.1558 109.046 37.708L102.366 43.7207L104.152 36.5723Z" fill="#85817E"/>
<path d="M72.8291 42.6699L73.833 34.8848C75.6151 34.7353 78.3899 34.5528 80.9863 34.5117L72.8291 42.6699Z" fill="#85817E"/>
<path d="M54.2773 37.457C50.8346 44.0462 50.3821 56.627 50.4922 63.0156C50.2997 62.7796 50.1155 62.5364 49.9395 62.2871L48.2451 58.6152C48.0869 57.9403 48 57.235 48 56.5V56.4785L47.999 56.457L47.5273 39.9531C48.9037 39.3444 50.7982 38.58 52.7832 37.9238C53.2841 37.7582 53.784 37.6013 54.2773 37.457Z" fill="#85817E"/>
</svg>
