<svg width="177" height="172" viewBox="0 0 177 172" fill="none" xmlns="http://www.w3.org/2000/svg">
<path d="M148.315 107.413C146.104 124.347 116.493 124.798 101.965 122.906C78.4793 115.581 37.2217 93.4399 19.5285 83.2851C2.9781 68.7257 0.568781 58.3493 1.43292 54.981C2.38057 51.6388 12.3279 56.2959 17.1832 59.0422C35.6165 59.2339 76.7693 60.8926 93.9138 65.9931C140.421 76.1269 149.559 97.8285 148.315 107.413Z" fill="#162C70" stroke="black" stroke-width="1.86485" stroke-linecap="round"/>
<path d="M112.804 97.7768L107.459 78.49C93.4074 88.4543 81.6946 87.9847 77.6995 87.3029C79.8656 85.537 85.6383 75.639 88.2539 70.9107C82.6678 74.9956 72.4057 75.3333 67.9729 74.9915C69.1623 74.5725 72.8643 68.8115 74.5666 65.9834C67.2802 71.8929 52.1045 72.3182 45.929 72.0333C42.2484 75.8369 36.3416 86.4136 33.1687 90.874C32.3192 82.7054 25.6897 80.8813 22.4811 80.9903C14.6548 86.3101 13.4182 95.2787 13.7781 99.098C16.921 109.69 24.4677 109.12 27.8482 107.512C34.3338 124.168 49.9756 137.135 56.9858 141.536C68.9913 144.994 81.8428 141.925 86.7679 139.957C97.0938 128.409 108.428 107.025 112.804 97.7768Z" fill="#FCD8B4" stroke="black" stroke-width="1.86485" stroke-linecap="round"/>
<path d="M53.1342 105.01C59.6696 106.83 64.6301 100.078 66.2189 97.058C66.2672 86.6789 57.0752 82.9628 52.7209 82.3148C48.5326 85.4616 45.8177 90.9676 45.4947 93.4954C46.2603 100.468 50.9376 104.298 53.1342 105.01Z" fill="white"/>
<path d="M84.8463 121.682C77.6871 118.076 79.5959 111.192 81.3271 108.447C86.9842 103.529 96.5263 105.089 100.244 107.633L98.8114 111.469C94.4567 122.586 87.6869 122.909 84.8463 121.682Z" fill="white"/>
<path d="M111.165 99.0528C109.661 105.265 104.28 114.663 101.737 118.669C115.661 117.106 119.71 106.256 119.743 100.905C121.822 106.858 126.673 109.327 128.839 109.818C128.984 106.09 126.756 97.8775 125.624 94.2374C116.977 79.6793 96.8259 68.3571 87.8313 64.5158C72.6363 56.3872 44.8274 58.9139 32.8224 61.1934C29.6152 64.4403 24.1826 76.029 22.4837 80.9915C29.3317 81.4758 33.0463 87.9946 33.4311 91.6194C33.9178 88.551 42.075 77.0608 46.0927 71.6993C59.2183 74.5403 70.3768 68.8544 74.3153 65.6563C73.8141 67.727 70.4252 72.1799 68.7934 74.1476C76.8647 76.5408 84.6899 73.0505 87.5936 71.0062C86.1254 75.0888 80.8294 83.5098 78.3649 87.21C89.7515 89.2152 102.342 82.2912 107.214 78.5786C109.021 82.9557 111.309 93.7559 111.165 99.0528Z" fill="#502E1D" stroke="black" stroke-width="1.86485" stroke-linecap="round"/>
<path d="M99.8593 12.5053C110.546 16.6511 120.486 56.9563 124.025 75.7188C97.7984 42.0617 62.8771 38.487 42.4652 44.9816C47.6902 38.9069 58.771 32.0406 63.24 29.1663L53.3745 24.4247C51.0117 21.8031 48.9369 14.2425 48.1948 10.79C45.803 6.17303 47.9973 2.9209 49.3934 1.87196C52.9214 2.41178 56.4399 8.76734 57.7581 11.8776C61.1459 16.478 76.8848 14.053 84.3308 12.2654C90.6647 9.36553 97.3223 11.217 99.8593 12.5053Z" fill="#476CDB" stroke="black" stroke-width="1.86485" stroke-linecap="round"/>
<path d="M42.544 44.8132C81.3033 33.7211 112.902 60.7411 123.856 75.6377C107.402 67.7296 80.398 63.5569 68.857 61.5875C62.5988 60.5609 37.8911 59.7761 26.4152 60.3836C19.3786 60.6342 6.71703 56.9705 1.75234 54.3091C3.56341 47.543 23.0581 48.3817 31.9754 48.8148C38.9621 49.6961 41.9322 46.5142 42.544 44.8132Z" fill="#4B6DDC" stroke="black" stroke-width="1.86485" stroke-linecap="round"/>
<path d="M72.8252 117.57C72.0959 118.802 69.7469 120.549 66.185 117.681" stroke="black" stroke-width="0.932427" stroke-linecap="round"/>
<path d="M83.3011 101.347C94.6796 98.2295 105.681 98.8944 108.691 100.341C105.746 91.9077 91.558 94.4458 86.363 94.9761C84.4741 97.5356 83.0889 100.075 83.3011 101.347Z" fill="black" stroke="black" stroke-width="0.466214" stroke-linecap="round"/>
<path d="M56.1458 72.1961C63.1803 82.3997 69.1946 88.7302 69.9837 93.5125C71.4631 92.1478 72.1823 90.2232 72.7403 88.6338C71.9134 86.5855 69.9216 83.2205 69.1561 81.958C61.9937 73.5621 61.3051 73.0249 56.1458 72.1961Z" fill="black" stroke="black" stroke-width="0.466214" stroke-linecap="round"/>
<path d="M21.0802 87.3337C22.5133 86.9217 25.6554 86.8082 26.7594 89.6504L27.5754 94.3768C25.9751 94.7085 22.669 96.1053 22.2468 99.0396L23.6268 102.592" stroke="black" stroke-width="0.932427" stroke-linecap="round"/>
<path d="M62.4582 123.733C71.1533 127.912 70.7941 133.656 69.5276 136.005C65.6004 135.268 60.1538 132.667 57.9214 131.459C49.2263 127.28 48.5192 124.326 49.2525 123.371C51.9608 120.215 59.1848 122.297 62.4582 123.733Z" stroke="black" stroke-width="1.86485"/>
<path d="M68.1153 135.946C62.2629 133.133 53.8338 130.114 49.7098 126.274C49.368 124.659 50.1863 123.987 50.5236 123.363C51.1538 122.198 52.012 122.008 53.2919 121.391C59.2874 122.621 66.1249 124.669 69.8701 131.01C69.8829 131.892 69.6248 133.1 69.2434 133.599C68.8004 134.178 69.461 135.678 68.1153 135.946Z" fill="white" stroke="black" stroke-width="0.932427"/>
<path d="M70.3956 133.327C70.38 133.493 69.7935 133.533 67.5712 132.361" stroke="black" stroke-width="0.932427"/>
<path d="M52.8104 124.522C52.7448 124.677 51.6656 124.655 49.9062 122.86" stroke="black" stroke-width="0.932427"/>
</svg>
