<svg width="360" height="360" viewBox="0 0 360 360" fill="none" xmlns="http://www.w3.org/2000/svg">
<g clip-path="url(#clip0_947_2706)">
<rect width="360" height="360" fill="white"/>
<rect x="-1" y="-1" width="38" height="38" fill="#0A0A0A" stroke="#121212" stroke-width="2"/>
<rect x="-1" y="35" width="38" height="38" fill="#0A0A0A" stroke="#121212" stroke-width="2"/>
<rect x="-1" y="71" width="38" height="38" fill="#0A0A0A" stroke="#121212" stroke-width="2"/>
<rect x="-1" y="107" width="38" height="38" fill="#0A0A0A" stroke="#121212" stroke-width="2"/>
<rect x="-1" y="143" width="38" height="38" fill="#0A0A0A" stroke="#121212" stroke-width="2"/>
<rect x="-1" y="179" width="38" height="38" fill="#0A0A0A" stroke="#121212" stroke-width="2"/>
<rect x="-1" y="215" width="38" height="38" fill="#0A0A0A" stroke="#121212" stroke-width="2"/>
<rect x="-1" y="251" width="38" height="38" fill="#0A0A0A" stroke="#121212" stroke-width="2"/>
<rect x="-1" y="287" width="38" height="38" fill="#0A0A0A" stroke="#121212" stroke-width="2"/>
<rect x="-1" y="323" width="38" height="38" fill="#0A0A0A" stroke="#121212" stroke-width="2"/>
<rect x="143" y="-1" width="38" height="38" fill="#0A0A0A" stroke="#121212" stroke-width="2"/>
<rect x="143" y="35" width="38" height="38" fill="#0A0A0A" stroke="#121212" stroke-width="2"/>
<rect x="143" y="71" width="38" height="38" fill="#0A0A0A" stroke="#121212" stroke-width="2"/>
<rect x="143" y="107" width="38" height="38" fill="#0A0A0A" stroke="#121212" stroke-width="2"/>
<rect x="143" y="143" width="38" height="38" fill="#0A0A0A" stroke="#121212" stroke-width="2"/>
<rect x="143" y="179" width="38" height="38" fill="#0A0A0A" stroke="#121212" stroke-width="2"/>
<rect x="143" y="215" width="38" height="38" fill="#0A0A0A" stroke="#121212" stroke-width="2"/>
<rect x="143" y="251" width="38" height="38" fill="#0A0A0A" stroke="#121212" stroke-width="2"/>
<rect x="143" y="287" width="38" height="38" fill="#0A0A0A" stroke="#121212" stroke-width="2"/>
<rect x="143" y="323" width="38" height="38" fill="#0A0A0A" stroke="#121212" stroke-width="2"/>
<rect x="35" y="-1" width="38" height="38" fill="#0A0A0A" stroke="#121212" stroke-width="2"/>
<rect x="35" y="35" width="38" height="38" fill="#0A0A0A" stroke="#121212" stroke-width="2"/>
<rect x="35" y="71" width="38" height="38" fill="#0A0A0A" stroke="#121212" stroke-width="2"/>
<rect x="35" y="107" width="38" height="38" fill="#0A0A0A" stroke="#121212" stroke-width="2"/>
<rect x="35" y="143" width="38" height="38" fill="#0A0A0A" stroke="#121212" stroke-width="2"/>
<rect x="35" y="179" width="38" height="38" fill="#0A0A0A" stroke="#121212" stroke-width="2"/>
<rect x="35" y="215" width="38" height="38" fill="#0A0A0A" stroke="#121212" stroke-width="2"/>
<rect x="35" y="251" width="38" height="38" fill="#0A0A0A" stroke="#121212" stroke-width="2"/>
<rect x="35" y="287" width="38" height="38" fill="#0A0A0A" stroke="#121212" stroke-width="2"/>
<rect x="35" y="323" width="38" height="38" fill="#0A0A0A" stroke="#121212" stroke-width="2"/>
<rect x="179" y="-1" width="38" height="38" fill="#0A0A0A" stroke="#121212" stroke-width="2"/>
<rect x="179" y="35" width="38" height="38" fill="#0A0A0A" stroke="#121212" stroke-width="2"/>
<rect x="179" y="71" width="38" height="38" fill="#0A0A0A" stroke="#121212" stroke-width="2"/>
<rect x="179" y="107" width="38" height="38" fill="#0A0A0A" stroke="#121212" stroke-width="2"/>
<rect x="179" y="143" width="38" height="38" fill="#0A0A0A" stroke="#121212" stroke-width="2"/>
<rect x="179" y="179" width="38" height="38" fill="#0A0A0A" stroke="#121212" stroke-width="2"/>
<rect x="179" y="215" width="38" height="38" fill="#0A0A0A" stroke="#121212" stroke-width="2"/>
<rect x="179" y="251" width="38" height="38" fill="#0A0A0A" stroke="#121212" stroke-width="2"/>
<rect x="179" y="287" width="38" height="38" fill="#0A0A0A" stroke="#121212" stroke-width="2"/>
<rect x="179" y="323" width="38" height="38" fill="#0A0A0A" stroke="#121212" stroke-width="2"/>
<rect x="71" y="-1" width="38" height="38" fill="#0A0A0A" stroke="#121212" stroke-width="2"/>
<rect x="71" y="35" width="38" height="38" fill="#0A0A0A" stroke="#121212" stroke-width="2"/>
<rect x="71" y="71" width="38" height="38" fill="#0A0A0A" stroke="#121212" stroke-width="2"/>
<rect x="71" y="107" width="38" height="38" fill="#0A0A0A" stroke="#121212" stroke-width="2"/>
<rect x="71" y="143" width="38" height="38" fill="#0A0A0A" stroke="#121212" stroke-width="2"/>
<rect x="71" y="179" width="38" height="38" fill="#0A0A0A" stroke="#121212" stroke-width="2"/>
<rect x="71" y="215" width="38" height="38" fill="#0A0A0A" stroke="#121212" stroke-width="2"/>
<rect x="71" y="251" width="38" height="38" fill="#0A0A0A" stroke="#121212" stroke-width="2"/>
<rect x="71" y="287" width="38" height="38" fill="#0A0A0A" stroke="#121212" stroke-width="2"/>
<rect x="71" y="323" width="38" height="38" fill="#0A0A0A" stroke="#121212" stroke-width="2"/>
<rect x="215" y="-1" width="38" height="38" fill="#0A0A0A" stroke="#121212" stroke-width="2"/>
<rect x="215" y="35" width="38" height="38" fill="#0A0A0A" stroke="#121212" stroke-width="2"/>
<rect x="215" y="71" width="38" height="38" fill="#0A0A0A" stroke="#121212" stroke-width="2"/>
<rect x="215" y="107" width="38" height="38" fill="#0A0A0A" stroke="#121212" stroke-width="2"/>
<rect x="215" y="143" width="38" height="38" fill="#0A0A0A" stroke="#121212" stroke-width="2"/>
<rect x="215" y="179" width="38" height="38" fill="#0A0A0A" stroke="#121212" stroke-width="2"/>
<rect x="215" y="215" width="38" height="38" fill="#0A0A0A" stroke="#121212" stroke-width="2"/>
<rect x="215" y="251" width="38" height="38" fill="#0A0A0A" stroke="#121212" stroke-width="2"/>
<rect x="215" y="287" width="38" height="38" fill="#0A0A0A" stroke="#121212" stroke-width="2"/>
<rect x="215" y="323" width="38" height="38" fill="#0A0A0A" stroke="#121212" stroke-width="2"/>
<rect x="287" y="-1" width="38" height="38" fill="#0A0A0A" stroke="#121212" stroke-width="2"/>
<rect x="287" y="35" width="38" height="38" fill="#0A0A0A" stroke="#121212" stroke-width="2"/>
<rect x="287" y="71" width="38" height="38" fill="#0A0A0A" stroke="#121212" stroke-width="2"/>
<rect x="287" y="107" width="38" height="38" fill="#0A0A0A" stroke="#121212" stroke-width="2"/>
<rect x="287" y="143" width="38" height="38" fill="#0A0A0A" stroke="#121212" stroke-width="2"/>
<rect x="287" y="179" width="38" height="38" fill="#0A0A0A" stroke="#121212" stroke-width="2"/>
<rect x="287" y="215" width="38" height="38" fill="#0A0A0A" stroke="#121212" stroke-width="2"/>
<rect x="287" y="251" width="38" height="38" fill="#0A0A0A" stroke="#121212" stroke-width="2"/>
<rect x="287" y="287" width="38" height="38" fill="#0A0A0A" stroke="#121212" stroke-width="2"/>
<rect x="287" y="323" width="38" height="38" fill="#0A0A0A" stroke="#121212" stroke-width="2"/>
<rect x="107" y="-1" width="38" height="38" fill="#0A0A0A" stroke="#121212" stroke-width="2"/>
<rect x="107" y="35" width="38" height="38" fill="#0A0A0A" stroke="#121212" stroke-width="2"/>
<rect x="107" y="71" width="38" height="38" fill="#0A0A0A" stroke="#121212" stroke-width="2"/>
<rect x="107" y="107" width="38" height="38" fill="#0A0A0A" stroke="#121212" stroke-width="2"/>
<rect x="107" y="143" width="38" height="38" fill="#0A0A0A" stroke="#121212" stroke-width="2"/>
<rect x="107" y="179" width="38" height="38" fill="#0A0A0A" stroke="#121212" stroke-width="2"/>
<rect x="107" y="215" width="38" height="38" fill="#0A0A0A" stroke="#121212" stroke-width="2"/>
<rect x="107" y="251" width="38" height="38" fill="#0A0A0A" stroke="#121212" stroke-width="2"/>
<rect x="107" y="287" width="38" height="38" fill="#0A0A0A" stroke="#121212" stroke-width="2"/>
<rect x="107" y="323" width="38" height="38" fill="#0A0A0A" stroke="#121212" stroke-width="2"/>
<rect x="251" y="-1" width="38" height="38" fill="#0A0A0A" stroke="#121212" stroke-width="2"/>
<rect x="251" y="35" width="38" height="38" fill="#0A0A0A" stroke="#121212" stroke-width="2"/>
<rect x="251" y="71" width="38" height="38" fill="#0A0A0A" stroke="#121212" stroke-width="2"/>
<rect x="251" y="107" width="38" height="38" fill="#0A0A0A" stroke="#121212" stroke-width="2"/>
<rect x="251" y="143" width="38" height="38" fill="#0A0A0A" stroke="#121212" stroke-width="2"/>
<rect x="251" y="179" width="38" height="38" fill="#0A0A0A" stroke="#121212" stroke-width="2"/>
<rect x="251" y="215" width="38" height="38" fill="#0A0A0A" stroke="#121212" stroke-width="2"/>
<rect x="251" y="251" width="38" height="38" fill="#0A0A0A" stroke="#121212" stroke-width="2"/>
<rect x="251" y="287" width="38" height="38" fill="#0A0A0A" stroke="#121212" stroke-width="2"/>
<rect x="251" y="323" width="38" height="38" fill="#0A0A0A" stroke="#121212" stroke-width="2"/>
<rect x="323" y="-1" width="38" height="38" fill="#0A0A0A" stroke="#121212" stroke-width="2"/>
<rect x="323" y="35" width="38" height="38" fill="#0A0A0A" stroke="#121212" stroke-width="2"/>
<rect x="323" y="71" width="38" height="38" fill="#0A0A0A" stroke="#121212" stroke-width="2"/>
<rect x="323" y="107" width="38" height="38" fill="#0A0A0A" stroke="#121212" stroke-width="2"/>
<rect x="323" y="143" width="38" height="38" fill="#0A0A0A" stroke="#121212" stroke-width="2"/>
<rect x="323" y="179" width="38" height="38" fill="#0A0A0A" stroke="#121212" stroke-width="2"/>
<rect x="323" y="215" width="38" height="38" fill="#0A0A0A" stroke="#121212" stroke-width="2"/>
<rect x="323" y="251" width="38" height="38" fill="#0A0A0A" stroke="#121212" stroke-width="2"/>
<rect x="323" y="287" width="38" height="38" fill="#0A0A0A" stroke="#121212" stroke-width="2"/>
<rect x="323" y="323" width="38" height="38" fill="#0A0A0A" stroke="#121212" stroke-width="2"/>
<path d="M144.953 117V37H176.516C182.583 37 187.753 38.1589 192.023 40.4766C196.294 42.7682 199.549 45.9583 201.789 50.0469C204.055 54.1094 205.188 58.7969 205.188 64.1094C205.188 69.4219 204.042 74.1094 201.75 78.1719C199.458 82.2344 196.138 85.3984 191.789 87.6641C187.466 89.9297 182.232 91.0625 176.086 91.0625H155.969V77.5078H173.352C176.607 77.5078 179.289 76.9479 181.398 75.8281C183.534 74.6823 185.122 73.1068 186.164 71.1016C187.232 69.0703 187.766 66.7396 187.766 64.1094C187.766 61.4531 187.232 59.1354 186.164 57.1562C185.122 55.151 183.534 53.6016 181.398 52.5078C179.263 51.388 176.555 50.8281 173.273 50.8281H161.867V117H144.953ZM216.174 117V37H233.088V103.055H267.385V117H216.174ZM294.416 117H276.291L303.908 37H325.705L353.283 117H335.158L315.119 55.2812H314.494L294.416 117ZM293.283 85.5547H336.096V98.7578H293.283V85.5547ZM350.061 37H369.006L387.248 71.4531H388.029L406.271 37H425.217L396.037 88.7187V117H379.24V88.7187L350.061 37Z" fill="white"/>
<path d="M281.047 242V322H249.484C243.417 322 238.247 320.841 233.977 318.523C229.706 316.232 226.451 313.042 224.211 308.953C221.945 304.891 220.812 300.203 220.812 294.891C220.812 289.578 221.958 284.891 224.25 280.828C226.542 276.766 229.862 273.602 234.211 271.336C238.534 269.07 243.768 267.938 249.914 267.938H270.031V281.492H252.648C249.393 281.492 246.711 282.052 244.602 283.172C242.466 284.318 240.878 285.893 239.836 287.898C238.768 289.93 238.234 292.26 238.234 294.891C238.234 297.547 238.768 299.865 239.836 301.844C240.878 303.849 242.466 305.398 244.602 306.492C246.737 307.612 249.445 308.172 252.727 308.172H264.133V242H281.047ZM209.826 242V322H192.912V255.945H158.615V242H209.826ZM131.584 242H149.709L122.092 322H100.295L72.7168 242H90.8418L110.881 303.719H111.506L131.584 242ZM132.717 273.445H89.9043V260.242H132.717V273.445ZM75.9395 322H56.9941L38.752 287.547H37.9707L19.7285 322H0.783201L29.9629 270.281V242H46.7598V270.281L75.9395 322Z" fill="white"/>
<path d="M148.315 107.413C146.104 124.347 116.493 124.798 101.965 122.906C78.4793 115.581 37.2217 93.4399 19.5285 83.2851C2.9781 68.7257 0.568781 58.3493 1.43292 54.981C2.38057 51.6388 12.3279 56.2959 17.1832 59.0422C35.6165 59.2339 76.7693 60.8926 93.9138 65.9931C140.421 76.1269 149.559 97.8285 148.315 107.413Z" fill="#162C70" stroke="black" stroke-width="1.86485" stroke-linecap="round"/>
<path d="M112.804 97.7768L107.459 78.49C93.4074 88.4543 81.6946 87.9847 77.6995 87.3029C79.8656 85.537 85.6383 75.639 88.2539 70.9107C82.6678 74.9956 72.4057 75.3333 67.9729 74.9915C69.1623 74.5725 72.8643 68.8115 74.5666 65.9834C67.2802 71.8929 52.1045 72.3182 45.929 72.0333C42.2484 75.8369 36.3416 86.4136 33.1687 90.874C32.3192 82.7054 25.6897 80.8813 22.4811 80.9903C14.6548 86.3101 13.4182 95.2787 13.7781 99.098C16.921 109.69 24.4677 109.12 27.8482 107.512C34.3338 124.168 49.9756 137.135 56.9858 141.536C68.9913 144.994 81.8428 141.925 86.7679 139.957C97.0938 128.409 108.428 107.025 112.804 97.7768Z" fill="#FCD8B4" stroke="black" stroke-width="1.86485" stroke-linecap="round"/>
<path d="M53.1342 105.01C59.6696 106.83 64.6301 100.078 66.2189 97.058C66.2672 86.6789 57.0752 82.9628 52.7209 82.3148C48.5326 85.4616 45.8177 90.9676 45.4947 93.4954C46.2603 100.468 50.9376 104.298 53.1342 105.01Z" fill="white"/>
<path d="M84.8463 121.682C77.6871 118.076 79.5959 111.192 81.3271 108.447C86.9842 103.529 96.5263 105.089 100.244 107.633L98.8114 111.469C94.4567 122.586 87.6869 122.909 84.8463 121.682Z" fill="white"/>
<path d="M111.165 99.0528C109.661 105.265 104.28 114.663 101.737 118.669C115.661 117.106 119.71 106.256 119.743 100.905C121.822 106.858 126.673 109.327 128.839 109.818C128.984 106.09 126.756 97.8775 125.624 94.2374C116.977 79.6793 96.8259 68.3571 87.8313 64.5158C72.6363 56.3872 44.8274 58.9139 32.8224 61.1934C29.6152 64.4403 24.1826 76.029 22.4837 80.9915C29.3317 81.4758 33.0463 87.9946 33.4311 91.6194C33.9178 88.551 42.075 77.0608 46.0927 71.6993C59.2183 74.5403 70.3768 68.8544 74.3153 65.6563C73.8141 67.727 70.4252 72.1799 68.7934 74.1476C76.8647 76.5408 84.6899 73.0505 87.5936 71.0062C86.1254 75.0888 80.8294 83.5098 78.3649 87.21C89.7515 89.2152 102.342 82.2912 107.214 78.5786C109.021 82.9557 111.309 93.7559 111.165 99.0528Z" fill="#502E1D" stroke="black" stroke-width="1.86485" stroke-linecap="round"/>
<path d="M99.8593 12.5053C110.546 16.6511 120.486 56.9563 124.025 75.7188C97.7984 42.0617 62.8771 38.487 42.4652 44.9816C47.6902 38.9069 58.771 32.0406 63.24 29.1663L53.3745 24.4247C51.0117 21.8031 48.9369 14.2425 48.1948 10.79C45.803 6.17303 47.9973 2.9209 49.3934 1.87196C52.9214 2.41178 56.4399 8.76734 57.7581 11.8776C61.1459 16.478 76.8848 14.053 84.3308 12.2654C90.6647 9.36553 97.3223 11.217 99.8593 12.5053Z" fill="#476CDB" stroke="black" stroke-width="1.86485" stroke-linecap="round"/>
<path d="M42.544 44.8132C81.3033 33.7211 112.902 60.7411 123.856 75.6377C107.402 67.7296 80.398 63.5569 68.857 61.5875C62.5988 60.5609 37.8911 59.7761 26.4152 60.3836C19.3786 60.6342 6.71703 56.9705 1.75234 54.3091C3.56341 47.543 23.0581 48.3817 31.9754 48.8148C38.9621 49.6961 41.9322 46.5142 42.544 44.8132Z" fill="#4B6DDC" stroke="black" stroke-width="1.86485" stroke-linecap="round"/>
<path d="M72.8252 117.57C72.0959 118.802 69.7469 120.549 66.185 117.681" stroke="black" stroke-width="0.932427" stroke-linecap="round"/>
<path d="M83.3011 101.347C94.6796 98.2295 105.681 98.8944 108.691 100.341C105.746 91.9077 91.558 94.4458 86.363 94.9761C84.4741 97.5356 83.0889 100.075 83.3011 101.347Z" fill="black" stroke="black" stroke-width="0.466214" stroke-linecap="round"/>
<path d="M56.1458 72.1961C63.1803 82.3997 69.1946 88.7302 69.9837 93.5125C71.4631 92.1478 72.1823 90.2232 72.7403 88.6338C71.9134 86.5855 69.9216 83.2205 69.1561 81.958C61.9937 73.5621 61.3051 73.0249 56.1458 72.1961Z" fill="black" stroke="black" stroke-width="0.466214" stroke-linecap="round"/>
<path d="M21.0802 87.3337C22.5133 86.9217 25.6554 86.8082 26.7594 89.6504L27.5754 94.3768C25.9751 94.7085 22.669 96.1053 22.2468 99.0396L23.6268 102.592" stroke="black" stroke-width="0.932427" stroke-linecap="round"/>
<path d="M62.4582 123.733C71.1533 127.912 70.7941 133.656 69.5276 136.005C65.6004 135.268 60.1538 132.667 57.9214 131.459C49.2263 127.28 48.5192 124.326 49.2525 123.371C51.9608 120.215 59.1848 122.297 62.4582 123.733Z" stroke="black" stroke-width="1.86485"/>
<path d="M68.1153 135.946C62.2629 133.133 53.8338 130.114 49.7098 126.274C49.368 124.659 50.1863 123.987 50.5236 123.363C51.1538 122.198 52.012 122.008 53.2919 121.391C59.2874 122.621 66.1249 124.669 69.8701 131.01C69.8829 131.892 69.6248 133.1 69.2434 133.599C68.8004 134.178 69.461 135.678 68.1153 135.946Z" fill="white" stroke="black" stroke-width="0.932427"/>
<path d="M70.3956 133.327C70.38 133.493 69.7935 133.533 67.5712 132.361" stroke="black" stroke-width="0.932427"/>
<path d="M52.8104 124.522C52.7448 124.677 51.6656 124.655 49.9062 122.86" stroke="black" stroke-width="0.932427"/>
<path d="M243.942 213.989L252.842 205.972L268.031 222.835L260.018 230.053L266.302 234.171C271.312 220.727 279.974 213.359 288.99 209.731C298.131 206.052 307.526 206.253 313.671 207.627L314.254 207.764L314.323 207.78L314.39 207.802C324.609 211.12 331.295 217.963 335.369 224.672C337.405 228.024 338.801 231.362 339.672 234.25C340.531 237.101 340.915 239.635 340.825 241.365C340.273 251.935 341.057 270.918 341.956 279.06L342.082 280.193L341.139 280.834C316.894 297.285 292.416 322.477 283.222 333.009L282.488 333.851L281.394 333.613C273.39 331.87 254.592 329.114 244.022 328.562C242.291 328.472 239.812 327.827 237.065 326.675C234.284 325.509 231.109 323.772 227.987 321.398C221.739 316.648 215.63 309.285 213.394 298.777L213.379 298.707L213.37 298.638C212.522 292.393 213.197 282.704 217.957 273.715C222.504 265.127 230.734 257.279 244.627 253.695L241.186 247.016L233.171 254.235L217.982 237.373L226.882 229.356L218.443 219.988L235.503 204.62L243.942 213.989ZM246.432 282.98L245.804 283.586L245.663 283.726L245.555 283.893C242.743 288.226 243.084 292.243 244.795 295.401C246.427 298.412 249.229 300.533 251.297 301.596L251.609 301.756L276.322 304.454L284.914 296.714L265.404 275.054L264.621 275.013C260.565 274.801 256.564 276.273 253.313 278.053C250.452 279.619 248.02 281.507 246.432 282.98ZM294.718 239.486C293.087 240.912 290.957 243.134 289.101 245.817C286.992 248.864 285.112 252.69 284.9 256.746L284.859 257.529L304.37 279.189L312.962 271.449L312.853 246.589L312.726 246.263C311.884 244.095 310.066 241.088 307.241 239.151C304.279 237.12 300.319 236.363 295.717 238.709L295.539 238.799L295.385 238.924L294.718 239.486Z" fill="white"/>
<path d="M338.935 241.267C338.378 251.951 339.167 271.038 340.076 279.269C315.642 295.849 291.042 321.175 281.796 331.766C273.704 330.004 254.804 327.232 244.12 326.675C238.411 326.377 219.484 318.32 215.243 298.384C213.635 286.54 217.819 261.277 247.416 254.979L241.741 243.97L233.31 251.565L220.652 237.513L229.552 229.496L221.113 220.128L235.363 207.292L243.802 216.66L252.702 208.644L265.359 222.696L256.928 230.29L267.287 237.08C276.632 208.3 302.193 206.769 313.806 209.601C333.192 215.896 339.233 235.558 338.935 241.267Z" stroke="black" stroke-width="3.78251"/>
<path d="M282.192 353.472L290.63 362.84L370.26 291.112L361.822 281.744C358.728 278.309 349.494 273.333 337.314 280.911C330.926 284.987 322.619 292.45 309.77 304.023C296.922 315.597 288.634 323.082 283.915 329.011C275.111 340.336 279.098 350.037 282.192 353.472Z" fill="white"/>
<path d="M310.238 303.602L310.223 303.615C297.116 315.422 288.69 323.013 283.915 329.011C275.111 340.336 279.098 350.037 282.192 353.472L290.63 362.84L370.26 291.112L361.822 281.744C358.728 278.309 349.494 273.333 337.314 280.911C330.851 285.034 322.424 292.625 309.317 304.431L309.302 304.445" stroke="black" stroke-width="3.78251"/>
<path d="M311.45 305.902C324.353 294.28 332.515 286.955 338.737 282.983C345.885 278.54 351.801 278.784 355.832 280.277C348.022 281.97 325.259 301.1 314.311 310.962C297.026 326.531 285.874 340.74 281.371 347.476C280.273 343.306 280.61 337.354 285.815 330.654C290.413 324.879 298.548 317.525 311.45 305.902Z" fill="#D9D9D9"/>
<path d="M311.067 270.612L304.509 276.519L286.788 256.846C287.16 249.723 293.468 242.911 296.575 240.394C304.483 236.363 309.462 243.084 310.963 246.949L311.067 270.612Z" stroke="black" stroke-width="3.78251"/>
<path d="M275.686 302.482L282.244 296.575L264.523 276.902C257.4 276.53 249.968 282.094 247.142 284.922C242.309 292.367 248.475 298.019 252.162 299.915L275.686 302.482Z" stroke="black" stroke-width="3.78251"/>
<path d="M310.729 210.927C311.641 211.066 312.497 211.233 313.283 211.423C322.415 214.407 328.425 220.528 332.135 226.637C333.995 229.7 335.265 232.742 336.049 235.343C336.845 237.98 337.105 240.046 337.046 241.17C336.506 251.503 337.213 269.519 338.08 278.343C334.769 280.619 331.462 283.05 328.193 285.574C329.685 270.774 330.896 238.326 329.23 230.495C327.564 222.664 317.58 215.047 310.729 210.927Z" fill="#D9D9D9"/>
</g>
<defs>
<clipPath id="clip0_947_2706">
<rect width="360" height="360" fill="white"/>
</clipPath>
</defs>
</svg>
