<svg width="224" height="233" viewBox="0 0 224 233" fill="none" xmlns="http://www.w3.org/2000/svg">
<path d="M107.942 86.9885L116.842 78.9719L132.031 95.8345L124.018 103.053L130.302 107.171C135.312 93.7272 143.974 86.3594 152.99 82.7308C162.131 79.052 171.525 79.2529 177.671 80.6269L178.254 80.7637L178.323 80.7795L178.39 80.8022C188.609 84.1201 195.295 90.9629 199.369 97.6715C201.405 101.024 202.801 104.362 203.672 107.25C204.531 110.101 204.915 112.635 204.825 114.365C204.273 124.935 205.057 143.918 205.956 152.06L206.082 153.193L205.139 153.834C180.894 170.285 156.416 195.477 147.222 206.009L146.488 206.851L145.394 206.613C137.39 204.87 118.592 202.114 108.022 201.562C106.291 201.472 103.812 200.827 101.065 199.675C98.2836 198.509 95.1092 196.772 91.987 194.398C85.739 189.648 79.6297 182.285 77.3938 171.777L77.3791 171.707L77.3697 171.638C76.5219 165.393 77.1973 155.704 81.9567 146.715C86.5043 138.127 94.7339 130.279 108.627 126.695L105.186 120.016L97.1715 127.235L81.9821 110.373L90.8818 102.356L82.4432 92.9878L99.5035 77.6204L107.942 86.9885ZM110.432 155.98L109.804 156.586L109.663 156.726L109.555 156.893C106.743 161.226 107.084 165.243 108.795 168.401C110.427 171.412 113.229 173.533 115.297 174.596L115.609 174.756L140.322 177.454L148.914 169.714L129.404 148.054L128.621 148.013C124.565 147.801 120.564 149.273 117.313 151.053C114.452 152.619 112.02 154.507 110.432 155.98ZM158.718 112.486C157.087 113.912 154.957 116.134 153.101 118.817C150.992 121.864 149.112 125.69 148.9 129.746L148.859 130.529L168.37 152.189L176.962 144.449L176.853 119.589L176.726 119.263C175.884 117.095 174.066 114.088 171.241 112.151C168.279 110.12 164.319 109.363 159.717 111.709L159.539 111.799L159.385 111.924L158.718 112.486Z" fill="white"/>
<path d="M202.935 114.267C202.378 124.951 203.167 144.038 204.076 152.269C179.642 168.849 155.042 194.175 145.796 204.766C137.704 203.004 118.804 200.232 108.12 199.675C102.411 199.377 83.4845 191.32 79.2427 171.384C77.6348 159.54 81.8185 134.277 111.416 127.979L105.741 116.97L97.3101 124.565L84.6523 110.513L93.552 102.496L85.1135 93.1279L99.3633 80.292L107.802 89.6602L116.702 81.6435L129.359 95.6957L120.928 103.29L131.287 110.08C140.632 81.2996 166.193 79.7691 177.806 82.6015C197.192 88.8961 203.233 108.558 202.935 114.267Z" stroke="black" stroke-width="4"/>
<path d="M146.192 226.472L154.63 235.84L234.26 164.112L225.822 154.744C222.728 151.309 213.494 146.333 201.314 153.911C194.926 157.987 186.619 165.45 173.77 177.023C160.922 188.597 152.634 196.082 147.915 202.011C139.111 213.336 143.098 223.037 146.192 226.472Z" fill="white"/>
<path d="M174.238 176.602L174.223 176.615C161.116 188.422 152.69 196.013 147.915 202.011C139.111 213.336 143.098 223.037 146.192 226.472L154.63 235.84L234.26 164.112L225.822 154.744C222.728 151.309 213.494 146.333 201.314 153.911C194.851 158.034 186.424 165.625 173.317 177.431L173.302 177.445" stroke="black" stroke-width="3.78251"/>
<path d="M175.45 178.902C188.353 167.28 196.515 159.955 202.737 155.983C209.885 151.54 215.801 151.784 219.832 153.277C212.022 154.97 189.259 174.1 178.311 183.962C161.026 199.531 149.874 213.74 145.371 220.476C144.273 216.306 144.61 210.354 149.815 203.654C154.413 197.879 162.548 190.525 175.45 178.902Z" fill="#D9D9D9"/>
<path d="M175.067 143.612L168.509 149.519L150.788 129.846C151.16 122.723 157.468 115.911 160.575 113.394C168.483 109.363 173.462 116.084 174.963 119.949L175.067 143.612Z" stroke="black" stroke-width="3.78251"/>
<path d="M139.686 175.482L146.244 169.575L128.523 149.902C121.4 149.53 113.968 155.094 111.142 157.922C106.309 165.367 112.475 171.019 116.162 172.915L139.686 175.482Z" stroke="black" stroke-width="3.78251"/>
<path d="M174.729 83.9268C175.641 84.0662 176.497 84.2333 177.283 84.4228C186.415 87.4071 192.425 93.5279 196.135 99.637C197.995 102.7 199.265 105.742 200.049 108.343C200.845 110.98 201.105 113.046 201.046 114.17C200.506 124.503 201.213 142.519 202.08 151.343C198.769 153.619 195.462 156.05 192.193 158.574C193.685 143.774 194.896 111.326 193.23 103.495C191.564 95.6643 181.58 88.0465 174.729 83.9268Z" fill="#D9D9D9"/>
</svg>
