<svg width="162" height="162" viewBox="0 0 162 162" fill="none" xmlns="http://www.w3.org/2000/svg">
<path d="M89.9997 28H99.4997V46H90.946L92.4626 51.7627C102.552 46.5 111.567 46.756 118.806 49.4033C126.146 52.0877 131.576 57.193 134.468 61.2646L134.739 61.6553L134.771 61.7012L134.799 61.75C139.059 69.1294 139.367 76.7111 138.207 82.8271C137.627 85.8834 136.678 88.5917 135.658 90.7559C134.651 92.8921 133.532 94.5887 132.56 95.5605C126.624 101.496 117.009 113.099 113.218 118.375L112.69 119.109L111.795 118.986C88.7745 115.811 60.9768 117.663 49.9685 118.989L49.0886 119.096L48.571 118.375C44.7791 113.099 35.1641 101.496 29.2283 95.5605C28.2564 94.5887 27.1375 92.8922 26.1306 90.7559C25.1106 88.5916 24.1616 85.8834 23.5818 82.8271C22.4216 76.711 22.7294 69.1295 26.99 61.75L27.0183 61.7012L27.0495 61.6553C29.8652 57.5248 35.4059 52.1742 42.9822 49.4033C50.2211 46.7561 59.2365 46.4999 69.3259 51.7627L70.8435 46H62.2888V28H71.7888V18H89.9997V28ZM54.8445 69.9785L54.1531 70.002L53.9958 70.0098L53.8435 70.0508C49.886 71.1114 47.9547 73.6598 47.2868 76.4287C46.6499 79.0699 47.1754 81.8065 47.8298 83.5312L47.9284 83.791L61.0603 98.499H70.2322V75.3779L69.7927 74.9385C67.5147 72.6606 64.3756 71.4044 61.5154 70.7275C58.9974 70.1317 56.5628 69.9532 54.8445 69.9785ZM106.387 69.9785C104.669 69.9532 102.234 70.1317 99.7165 70.7275C96.8564 71.4044 93.7172 72.6607 91.4392 74.9385L90.9997 75.3779V98.499H100.172L113.303 83.791L113.402 83.5312C114.057 81.8066 114.582 79.0698 113.945 76.4287C113.277 73.6599 111.346 71.1114 107.388 70.0508L107.236 70.0098L107.079 70.002L106.387 69.9785Z" fill="white"/>
<path d="M131.499 94.5C125.499 100.5 115.832 112.167 111.999 117.5C88.7992 114.3 60.8585 116.167 49.7882 117.5C45.9548 112.167 36.2882 100.5 30.2882 94.5C27.0821 91.2939 20.2053 76.5 28.2882 62.5C33.6279 54.6667 49.5036 42 70.2882 54L72.7882 44.5H63.7882V29.5H73.2882V19.5H88.4991V29.5H97.9991V44.5H88.9991L91.4991 54C112.284 42 128.159 54.6667 133.499 62.5C141.582 76.5 134.705 91.2939 131.499 94.5Z" stroke="black" stroke-width="3"/>
<path d="M38.499 130.501V140.501H123.5V130.501C123.5 126.834 120.7 119.001 109.5 117.001C103.572 116.012 94.7146 116 80.9995 116C67.2845 116 58.4274 116.012 52.499 117.001C41.299 119.001 38.499 126.834 38.499 130.501Z" fill="white"/>
<path d="M81.499 116H81.483C67.4922 116 58.4967 116 52.499 117.001C41.299 119.001 38.499 126.834 38.499 130.501V140.501H123.5V130.501C123.5 126.834 120.7 119.001 109.5 117.001C103.502 116 94.5068 116 80.516 116H80.5" stroke="black" stroke-width="3"/>
<path d="M99.499 96.9995H92.499V75.9995C96.499 71.9995 103.832 71.3328 106.999 71.4995C113.799 73.3216 113.166 79.9254 111.999 82.9995L99.499 96.9995Z" stroke="black" stroke-width="3"/>
<path d="M61.7324 96.9995H68.7324V75.9995C64.7324 71.9995 57.3991 71.3328 54.2324 71.4995C47.4324 73.3216 48.0658 79.9254 49.2324 82.9995L61.7324 96.9995Z" stroke="black" stroke-width="3"/>
<path d="M130.983 61.6484C131.447 62.2152 131.863 62.7677 132.226 63.2969C136.023 69.9031 136.315 76.7 135.259 82.2695C134.729 85.0622 133.863 87.5288 132.944 89.4775C132.013 91.4541 131.07 92.8093 130.438 93.4404C124.636 99.2432 115.488 110.235 111.315 115.896C108.156 115.479 104.917 115.156 101.65 114.908C110.386 106.979 128.324 88.5 131.499 83.001C134.674 77.502 132.834 67.7133 130.983 61.6484Z" fill="#D9D9D9"/>
</svg>
