<svg width="162" height="162" viewBox="0 0 162 162" fill="none" xmlns="http://www.w3.org/2000/svg">
<path d="M129 70.9996L110 116.5C99.3333 115.666 72.7 114.399 51.5 116L32.5 70.4996C29 69.4996 23.0004 65 23 58.4996C23 54.5 27.4996 47.4996 34.9996 47.4996C37.9996 47.4996 45.9996 50 45.9996 58.4996C45.9996 60 45.6996 63.8 44.4996 65L57.9996 79L58.9996 47C55.8329 44.8333 51.9996 42 51.9996 34.5C51.9996 32 54.4996 23 62.9996 23C70.4996 23 75.4996 28 75.4996 34C75.4996 38 74.8996 43.3 70.4996 44.5L80.5 72L91.0004 45C86.6004 43.8 86.0004 38.5 86.0004 34.5C86.0004 28.5 91.0004 23.5 98.5004 23.5C107 23.5 109.5 32.5 109.5 35C109.5 42.5 105.667 45.3333 102.5 47.5L103.5 79.5L117 65.5C115.8 64.3 115.5 60.5 115.5 58.9996C115.5 50.5 123.5 47.9996 126.5 47.9996C134 47.9996 138.5 55 138.5 58.9996C138.5 65.5 132.5 69.9996 129 70.9996Z" fill="white" stroke="black" stroke-width="3"/>
<path d="M133.5 52.5C133.602 52.5255 133.708 52.5635 133.817 52.6094C133.951 52.7418 134.081 52.8762 134.207 53.0137C136.085 55.0631 137 57.4673 137 59C137 61.7653 135.725 64.1654 133.969 66.0352C132.196 67.9226 130.049 69.14 128.588 69.5576L127.894 69.7559L109.032 114.925C103.472 114.516 94.4551 114.032 84.2764 113.829C89.2306 112.653 100.757 104.978 117.5 79.5L124 67.5C124.333 66.8333 125.4 65.4 127 65C130.167 64.1667 135.9 60.1 133.5 52.5Z" fill="#D9D9D9"/>
<path d="M105.179 28.123C105.452 28.4491 105.705 28.7878 105.935 29.1377C107.469 31.4673 108 34.0575 108 35C108 38.4707 107.121 40.7453 105.963 42.3848C104.778 44.0613 103.231 45.1819 101.653 46.2617L100.975 46.7256L101.543 64.9102C99.4113 59.7428 95.7708 49.4328 98.0006 42C99.8999 38.7104 105.95 32.1959 105.179 28.123Z" fill="#D9D9D9"/>
<path d="M71.9176 28.2715C73.2654 29.8907 73.9996 31.8924 73.9996 34C73.9996 35.9584 73.8467 38.0729 73.235 39.7988C72.6386 41.4814 71.6783 42.6234 70.1041 43.0527L68.5328 43.4814L74.7848 60.6748C71.4911 55.6826 63.9517 44.9126 65.0006 41C65.9323 37.5228 71.2018 31.9306 71.9176 28.2715Z" fill="#D9D9D9"/>
<path d="M39.7002 50.377C40.056 50.5724 40.4109 50.79 40.7559 51.0352C42.7953 52.4843 44.5 54.8057 44.5 58.5C44.5 59.1776 44.4295 60.4151 44.2217 61.6045C44.1179 62.1984 43.9861 62.7426 43.8281 63.1826C43.6605 63.6495 43.5085 63.8694 43.4385 63.9395L42.3975 64.9805L47.8086 70.5918L38.5 63.5C38.5 60.1665 40.8582 53.1139 39.7002 50.377Z" fill="#D9D9D9"/>
<path d="M38 130.501V140.501H123.001V130.501C123.001 126.834 120.201 119.001 109.001 117.001C103.073 116.012 94.2155 116 80.5005 116C66.7854 116 57.9283 116.012 52 117.001C40.8 119.001 38 126.834 38 130.501Z" fill="white"/>
<path d="M81 116H80.984C66.9932 116 57.9977 116 52 117.001C40.8 119.001 38 126.834 38 130.501V140.501H123.001V130.501C123.001 126.834 120.201 119.001 109.001 117.001C103.003 116 94.0078 116 80.017 116H80.001" stroke="black" stroke-width="3"/>
</svg>
